<?xml version="1.0" encoding="utf-8"?>
<svg xmlns="http://www.w3.org/2000/svg" viewBox="279.8842 296.5025 473.4687 428.8508" width="473.469pt" height="428.851pt" xmlns:bx="https://boxy-svg.com">
  <defs>
    <linearGradient bx:pinned="true" id="color-1">
      <stop style="stop-color: #ff416c;" offset="0.168"/>
      <stop style="stop-color: rgb(251, 141, 45);" offset="0.826"/>
    </linearGradient>
  </defs>
  <g transform="matrix(0.10000000149011612, 0, 0, -0.10000000149011612, 216.3842468261719, 759.1038208007812)" fill="#000000" stroke="none">
    <path d="M4522 4498 l-324 -129 -116 50 c-448 191 -949 223 -1414 91 -624 -176 -1140 -634 -1389 -1233 l-32 -79 -306 -154 -306 -154 70 5 c39 2 157 7 264 10 l193 6 -5 -33 c-30 -173 -39 -305 -34 -483 6 -202 20 -301 67 -481 122 -460 397 -868 785 -1158 102 -77 287 -186 398 -235 120 -52 265 -103 284 -99 8 2 29 38 48 81 55 128 56 123 -15 87 -34 -17 -63 -30 -64 -28 -2 2 79 365 180 808 100 443 181 806 179 808 -2 2 -114 -19 -251 -48 -136 -28 -249 -49 -251 -46 -2 2 26 234 62 516 36 282 65 517 65 522 0 5 -15 6 -32 3 -18 -3 -206 -25 -418 -50 -212 -24 -618 -71 -902 -105 -285 -33 -528 -60 -540 -59 -13 0 387 164 887 363 856 342 1142 455 2613 1040 326 130 597 236 602 236 6 0 10 -2 10 -5 0 -3 72 -254 160 -557 88 -302 160 -553 160 -557 0 -4 -165 -26 -367 -49 -811 -94 -1050 -122 -1097 -129 l-48 -8 -139 -250 c-76 -137 -139 -253 -139 -256 0 -4 39 1 88 11 314 63 583 112 588 107 5 -5 -260 -454 -872 -1482 -111 -187 -199 -341 -194 -343 4 -1 46 6 94 16 69 15 86 16 82 5 -3 -7 -87 -157 -186 -333 -99 -176 -180 -324 -180 -329 0 -9 55 -20 205 -42 119 -18 429 -14 560 6 146 22 349 75 466 120 742 291 1253 952 1349 1745 15 124 12 392 -5 525 -25 187 -105 470 -169 594 -15 28 -15 30 6 33 13 2 24 10 25 18 4 23 -351 1233 -362 1236 -5 1 -155 -56 -333 -128z" style="fill: url(&quot;#color-1&quot;);"/>
  </g>
</svg>